# xmcd
#
# Track frame offsets: 
#        150
#        11334
#        37652
#        50077
#        75866
#        92979
#        111659
#        125460
#        148590
#
# Disc length: 2330 seconds
#
# Revision: 1
# Processed by: cddbd v1.5.2PL0 Copyright (c) Steve Scherf et al.
# Submitted via: ExactAudioCopy v1.3
#
DISCID=6d091809
DTITLE=Aldous Harding - Party
DYEAR=2017
DGENRE=Alternative
TTITLE0=Blend
TTITLE1=Imagining My Man
TTITLE2=Living the Classics
TTITLE3=Party
TTITLE4=I'm So Sorry
TTITLE5=Horizon
TTITLE6=What if Birds aren't Singing they're Screaming
TTITLE7=The World is Looking for You
TTITLE8=Swell Does the Skull
EXTD=YEAR: 2017
EXTT0=
EXTT1=
EXTT2=
EXTT3=
EXTT4=
EXTT5=
EXTT6=
EXTT7=
EXTT8=
PLAYORDER=
